# xmcd
#
# Track frame offsets: 
#        150
#        14809
#        30936
#        46186
#        62535
#        77478
#        93159
#        108713
#        125218
#        140291
#        154623
#        170634
#        185457
#        203567
#        219620
#        235463
#        257243
#        272736
#        288695
#        303360
#        319181
#        334060
#        349339
#
# Disc length: 4786 seconds
#
# Revision: 0
# Processed by: cddbd v1.5.2PL0 Copyright (c) Steve Scherf et al.
# Submitted via: ExactAudioCopy v0.95b4
#
DISCID=5712b017
DTITLE=Hansi Hinterseer - Ich Denk An Dich Incl. Bonustracks
DYEAR=2004
DGENRE=Folk
TTITLE0=Hände zum Himmel [Volkstümliche Version]
TTITLE1=Männer Aus Den Bergen
TTITLE2=Tiroler Berge
TTITLE3=Und Wenn Der Morgen Kommt
TTITLE4=Jessica
TTITLE5=Hab Di So Lang Scho Nimmer Gseh'n
TTITLE6=Beim Alpenglühn Und Edelweiss
TTITLE7=Du Bist Und Bleibst Die Eine
TTITLE8=Bärig
TTITLE9=Stella Maria
TTITLE10=Denn Wenn Die Rosen Blühen
TTITLE11=Du, Weisst Du Was
TTITLE12=Du Bist Mein Engel
TTITLE13=Hoch Auf Dem Wilden Kaiser
TTITLE14=Dass Wir Uns Lieben
TTITLE15=Hände Zum Himmel [Party-Mix Lange Version] Bonustrack
TTITLE16=Du Bist Die Schönste Bonustrack
TTITLE17=Willkommen, Wir Sind Musikanten Bonustrack
TTITLE18=Danke Für Die Liebe Bonustrack
TTITLE19=Denn Du Bist Mein Engel Bonustrack
TTITLE20=Schöne Mädchen Muss Man Lieben Bonustrack
TTITLE21=Küss Mich Bonustrack
TTITLE22=Lass Es Zu Bonustrack
EXTD=
EXTT0=
EXTT1=
EXTT2=
EXTT3=
EXTT4=
EXTT5=
EXTT6=
EXTT7=
EXTT8=
EXTT9=
EXTT10=
EXTT11=
EXTT12=
EXTT13=
EXTT14=
EXTT15=
EXTT16=
EXTT17=
EXTT18=
EXTT19=
EXTT20=
EXTT21=
EXTT22=
PLAYORDER=
